<svg width="296" height="60" viewBox="0 0 296 60" fill="none" xmlns="http://www.w3.org/2000/svg">
<rect width="296" height="60" fill="#004C93"/>
<rect x="24" y="21" width="24" height="2" fill="#FBFAF9"/>
<rect x="24" y="29" width="24" height="2" fill="#FBFAF9"/>
<rect x="24" y="37" width="24" height="2" fill="#FBFAF9"/>
<path d="M74.696 31.28H72.616V36H70.568V24.8H72.616V29.488H74.76L77.976 24.8H80.184L76.36 30.224L80.328 36H77.976L74.696 31.28ZM91.3764 33.408H85.7764L84.6724 36H82.5284L87.5684 24.8H89.6164L94.6724 36H92.4964L91.3764 33.408ZM90.6884 31.776L88.5764 26.88L86.4804 31.776H90.6884ZM106.355 26.56H102.643V36H100.579V26.56H96.8834V24.8H106.355V26.56ZM117.411 33.408H111.811L110.707 36H108.563L113.603 24.8H115.651L120.707 36H118.531L117.411 33.408ZM116.723 31.776L114.611 26.88L112.515 31.776H116.723ZM134.47 24.8V36H132.422V26.56H128.006L127.91 29.36C127.857 30.928 127.729 32.2027 127.526 33.184C127.324 34.1547 126.998 34.896 126.55 35.408C126.102 35.9093 125.484 36.16 124.694 36.16C124.417 36.16 124.038 36.1067 123.558 36L123.702 34.192C123.841 34.2347 124.001 34.256 124.182 34.256C124.833 34.256 125.292 33.872 125.558 33.104C125.836 32.3253 126.006 31.104 126.07 29.44L126.23 24.8H134.47ZM145.205 36.16C144.064 36.16 143.034 35.9147 142.117 35.424C141.2 34.9227 140.48 34.2347 139.957 33.36C139.434 32.4747 139.173 31.488 139.173 30.4C139.173 29.312 139.434 28.3307 139.957 27.456C140.48 26.5707 141.2 25.8827 142.117 25.392C143.034 24.8907 144.064 24.64 145.205 24.64C146.346 24.64 147.376 24.8907 148.293 25.392C149.21 25.8827 149.93 26.5653 150.453 27.44C150.976 28.3147 151.237 29.3013 151.237 30.4C151.237 31.4987 150.976 32.4853 150.453 33.36C149.93 34.2347 149.21 34.9227 148.293 35.424C147.376 35.9147 146.346 36.16 145.205 36.16ZM145.205 34.336C145.952 34.336 146.624 34.1707 147.221 33.84C147.818 33.4987 148.288 33.0293 148.629 32.432C148.97 31.824 149.141 31.1467 149.141 30.4C149.141 29.6533 148.97 28.9813 148.629 28.384C148.288 27.776 147.818 27.3067 147.221 26.976C146.624 26.6347 145.952 26.464 145.205 26.464C144.458 26.464 143.786 26.6347 143.189 26.976C142.592 27.3067 142.122 27.776 141.781 28.384C141.44 28.9813 141.269 29.6533 141.269 30.4C141.269 31.1467 141.44 31.824 141.781 32.432C142.122 33.0293 142.592 33.4987 143.189 33.84C143.786 34.1707 144.458 34.336 145.205 34.336ZM163.537 26.56H157.985L158.001 36H155.953V24.8H163.553L163.537 26.56ZM182.646 26.56H178.934V36H176.87V26.56H173.174V24.8H182.646V26.56ZM191.868 36.16C190.726 36.16 189.697 35.9147 188.78 35.424C187.862 34.9227 187.142 34.2347 186.62 33.36C186.097 32.4747 185.836 31.488 185.836 30.4C185.836 29.312 186.097 28.3307 186.62 27.456C187.142 26.5707 187.862 25.8827 188.78 25.392C189.697 24.8907 190.726 24.64 191.868 24.64C193.009 24.64 194.038 24.8907 194.956 25.392C195.873 25.8827 196.593 26.5653 197.116 27.44C197.638 28.3147 197.9 29.3013 197.9 30.4C197.9 31.4987 197.638 32.4853 197.116 33.36C196.593 34.2347 195.873 34.9227 194.956 35.424C194.038 35.9147 193.009 36.16 191.868 36.16ZM191.868 34.336C192.614 34.336 193.286 34.1707 193.884 33.84C194.481 33.4987 194.95 33.0293 195.292 32.432C195.633 31.824 195.804 31.1467 195.804 30.4C195.804 29.6533 195.633 28.9813 195.292 28.384C194.95 27.776 194.481 27.3067 193.884 26.976C193.286 26.6347 192.614 26.464 191.868 26.464C191.121 26.464 190.449 26.6347 189.852 26.976C189.254 27.3067 188.785 27.776 188.444 28.384C188.102 28.9813 187.932 29.6533 187.932 30.4C187.932 31.1467 188.102 31.824 188.444 32.432C188.785 33.0293 189.254 33.4987 189.852 33.84C190.449 34.1707 191.121 34.336 191.868 34.336ZM209.975 30.176C210.69 30.368 211.234 30.6987 211.607 31.168C211.981 31.6267 212.167 32.2027 212.167 32.896C212.167 33.8773 211.805 34.64 211.079 35.184C210.354 35.728 209.303 36 207.927 36H202.615V24.8H207.623C208.882 24.8 209.863 25.0507 210.567 25.552C211.271 26.0533 211.623 26.7627 211.623 27.68C211.623 28.2667 211.479 28.7733 211.191 29.2C210.914 29.6267 210.509 29.952 209.975 30.176ZM204.663 29.584H207.447C208.119 29.584 208.631 29.4507 208.983 29.184C209.335 28.9173 209.511 28.5227 209.511 28C209.511 27.4773 209.335 27.0827 208.983 26.816C208.631 26.5387 208.119 26.4 207.447 26.4H204.663V29.584ZM207.863 34.4C209.335 34.4 210.071 33.8453 210.071 32.736C210.071 31.648 209.335 31.104 207.863 31.104H204.663V34.4H207.863ZM224.361 33.408H218.761L217.657 36H215.513L220.553 24.8H222.601L227.657 36H225.481L224.361 33.408ZM223.673 31.776L221.561 26.88L219.465 31.776H223.673ZM236.382 24.8C237.353 24.8 238.196 24.96 238.91 25.28C239.636 25.6 240.19 26.0587 240.574 26.656C240.958 27.2533 241.15 27.9627 241.15 28.784C241.15 29.5947 240.958 30.304 240.574 30.912C240.19 31.5093 239.636 31.968 238.91 32.288C238.196 32.608 237.353 32.768 236.382 32.768H233.854V36H231.774V24.8H236.382ZM236.286 31.008C237.193 31.008 237.881 30.816 238.35 30.432C238.82 30.048 239.054 29.4987 239.054 28.784C239.054 28.0693 238.82 27.52 238.35 27.136C237.881 26.752 237.193 26.56 236.286 26.56H233.854V31.008H236.286ZM250.858 36.16C249.717 36.16 248.688 35.9147 247.77 35.424C246.853 34.9227 246.133 34.2347 245.61 33.36C245.088 32.4747 244.826 31.488 244.826 30.4C244.826 29.312 245.088 28.3307 245.61 27.456C246.133 26.5707 246.853 25.8827 247.77 25.392C248.688 24.8907 249.717 24.64 250.858 24.64C252 24.64 253.029 24.8907 253.946 25.392C254.864 25.8827 255.584 26.5653 256.106 27.44C256.629 28.3147 256.89 29.3013 256.89 30.4C256.89 31.4987 256.629 32.4853 256.106 33.36C255.584 34.2347 254.864 34.9227 253.946 35.424C253.029 35.9147 252 36.16 250.858 36.16ZM250.858 34.336C251.605 34.336 252.277 34.1707 252.874 33.84C253.472 33.4987 253.941 33.0293 254.282 32.432C254.624 31.824 254.794 31.1467 254.794 30.4C254.794 29.6533 254.624 28.9813 254.282 28.384C253.941 27.776 253.472 27.3067 252.874 26.976C252.277 26.6347 251.605 26.464 250.858 26.464C250.112 26.464 249.44 26.6347 248.842 26.976C248.245 27.3067 247.776 27.776 247.434 28.384C247.093 28.9813 246.922 29.6533 246.922 30.4C246.922 31.1467 247.093 31.824 247.434 32.432C247.776 33.0293 248.245 33.4987 248.842 33.84C249.44 34.1707 250.112 34.336 250.858 34.336ZM268.966 30.176C269.681 30.368 270.225 30.6987 270.598 31.168C270.971 31.6267 271.158 32.2027 271.158 32.896C271.158 33.8773 270.795 34.64 270.07 35.184C269.345 35.728 268.294 36 266.918 36H261.606V24.8H266.614C267.873 24.8 268.854 25.0507 269.558 25.552C270.262 26.0533 270.614 26.7627 270.614 27.68C270.614 28.2667 270.47 28.7733 270.182 29.2C269.905 29.6267 269.499 29.952 268.966 30.176ZM263.654 29.584H266.438C267.11 29.584 267.622 29.4507 267.974 29.184C268.326 28.9173 268.502 28.5227 268.502 28C268.502 27.4773 268.326 27.0827 267.974 26.816C267.622 26.5387 267.11 26.4 266.438 26.4H263.654V29.584ZM266.854 34.4C268.326 34.4 269.062 33.8453 269.062 32.736C269.062 31.648 268.326 31.104 266.854 31.104H263.654V34.4H266.854Z" fill="#FBFAF9"/>
</svg>
