<svg width="166" height="14" viewBox="0 0 166 14" fill="none" xmlns="http://www.w3.org/2000/svg">
<path d="M5.6 11.042C4.68533 11.042 3.85 10.8227 3.094 10.384C2.34733 9.94533 1.75467 9.348 1.316 8.592C0.886667 7.836 0.672 7.00533 0.672 6.1C0.672 5.19467 0.886667 4.364 1.316 3.608C1.75467 2.852 2.352 2.25467 3.108 1.816C3.864 1.37733 4.704 1.158 5.628 1.158C6.552 1.158 7.38733 1.37267 8.134 1.802C8.89 2.23133 9.48267 2.824 9.912 3.58C10.3413 4.32667 10.556 5.15733 10.556 6.072C10.556 6.98667 10.3367 7.82667 9.898 8.592C9.45933 9.348 8.862 9.94533 8.106 10.384C7.35 10.8227 6.51467 11.042 5.6 11.042ZM5.6 10.412C6.40267 10.412 7.13067 10.2207 7.784 9.838C8.43733 9.45533 8.95067 8.93267 9.324 8.27C9.70667 7.60733 9.898 6.87467 9.898 6.072C9.898 5.26933 9.71133 4.54133 9.338 3.888C8.974 3.23467 8.46533 2.72133 7.812 2.348C7.168 1.97467 6.44 1.788 5.628 1.788C4.82533 1.788 4.09267 1.97933 3.43 2.362C2.77667 2.74467 2.26333 3.26733 1.89 3.93C1.51667 4.58333 1.33 5.30667 1.33 6.1C1.33 6.89333 1.51667 7.62133 1.89 8.284C2.26333 8.93733 2.77667 9.45533 3.43 9.838C4.08333 10.2207 4.80667 10.412 5.6 10.412ZM5.754 8.984C5.18467 8.984 4.676 8.86267 4.228 8.62C3.78 8.37733 3.43 8.03667 3.178 7.598C2.926 7.15933 2.8 6.66 2.8 6.1C2.8 5.54 2.926 5.04067 3.178 4.602C3.43 4.16333 3.78 3.82267 4.228 3.58C4.676 3.33733 5.18467 3.216 5.754 3.216C6.23933 3.216 6.68267 3.31867 7.084 3.524C7.48533 3.72933 7.798 4.00467 8.022 4.35L7.224 4.924C6.888 4.42 6.39333 4.168 5.74 4.168C5.19867 4.168 4.75067 4.34533 4.396 4.7C4.04133 5.05467 3.864 5.52133 3.864 6.1C3.864 6.67867 4.04133 7.14533 4.396 7.5C4.75067 7.85467 5.19867 8.032 5.74 8.032C6.39333 8.032 6.888 7.78 7.224 7.276L8.022 7.836C7.798 8.19067 7.48533 8.47067 7.084 8.676C6.68267 8.88133 6.23933 8.984 5.754 8.984ZM22.5444 9.782V11H15.5024V10.048L19.4924 6.198C19.9777 5.73133 20.3044 5.33 20.4724 4.994C20.6404 4.64867 20.7244 4.30333 20.7244 3.958C20.7244 3.44467 20.5424 3.048 20.1784 2.768C19.8237 2.47867 19.3104 2.334 18.6384 2.334C17.5557 2.334 16.7204 2.68867 16.1324 3.398L15.1804 2.572C15.563 2.10533 16.0624 1.74133 16.6784 1.48C17.3037 1.21867 17.999 1.088 18.7644 1.088C19.791 1.088 20.6077 1.33533 21.2144 1.83C21.821 2.31533 22.1244 2.978 22.1244 3.818C22.1244 4.34067 22.0124 4.83533 21.7884 5.302C21.5644 5.76867 21.1397 6.30067 20.5144 6.898L17.5184 9.782H22.5444ZM27.6584 11.112C26.8838 11.112 26.1931 10.916 25.5864 10.524C24.9891 10.1227 24.5178 9.544 24.1724 8.788C23.8271 8.032 23.6544 7.136 23.6544 6.1C23.6544 5.064 23.8271 4.168 24.1724 3.412C24.5178 2.656 24.9891 2.082 25.5864 1.69C26.1931 1.28867 26.8838 1.088 27.6584 1.088C28.4238 1.088 29.1051 1.28867 29.7024 1.69C30.3091 2.082 30.7851 2.656 31.1304 3.412C31.4758 4.168 31.6484 5.064 31.6484 6.1C31.6484 7.136 31.4758 8.032 31.1304 8.788C30.7851 9.544 30.3091 10.1227 29.7024 10.524C29.1051 10.916 28.4238 11.112 27.6584 11.112ZM27.6584 9.866C28.4424 9.866 29.0678 9.544 29.5344 8.9C30.0104 8.256 30.2484 7.32267 30.2484 6.1C30.2484 4.87733 30.0104 3.944 29.5344 3.3C29.0678 2.656 28.4424 2.334 27.6584 2.334C26.8651 2.334 26.2304 2.656 25.7544 3.3C25.2878 3.944 25.0544 4.87733 25.0544 6.1C25.0544 7.32267 25.2878 8.256 25.7544 8.9C26.2304 9.544 26.8651 9.866 27.6584 9.866ZM39.8393 9.782V11H32.7973V10.048L36.7873 6.198C37.2726 5.73133 37.5993 5.33 37.7673 4.994C37.9353 4.64867 38.0193 4.30333 38.0193 3.958C38.0193 3.44467 37.8373 3.048 37.4733 2.768C37.1186 2.47867 36.6053 2.334 35.9333 2.334C34.8506 2.334 34.0153 2.68867 33.4273 3.398L32.4753 2.572C32.858 2.10533 33.3573 1.74133 33.9733 1.48C34.5986 1.21867 35.294 1.088 36.0593 1.088C37.086 1.088 37.9026 1.33533 38.5093 1.83C39.116 2.31533 39.4193 2.978 39.4193 3.818C39.4193 4.34067 39.3073 4.83533 39.0833 5.302C38.8593 5.76867 38.4346 6.30067 37.8093 6.898L34.8133 9.782H39.8393ZM44.9533 11.112C44.1787 11.112 43.488 10.916 42.8813 10.524C42.284 10.1227 41.8127 9.544 41.4673 8.788C41.122 8.032 40.9493 7.136 40.9493 6.1C40.9493 5.064 41.122 4.168 41.4673 3.412C41.8127 2.656 42.284 2.082 42.8813 1.69C43.488 1.28867 44.1787 1.088 44.9533 1.088C45.7187 1.088 46.4 1.28867 46.9973 1.69C47.604 2.082 48.08 2.656 48.4253 3.412C48.7707 4.168 48.9433 5.064 48.9433 6.1C48.9433 7.136 48.7707 8.032 48.4253 8.788C48.08 9.544 47.604 10.1227 46.9973 10.524C46.4 10.916 45.7187 11.112 44.9533 11.112ZM44.9533 9.866C45.7373 9.866 46.3627 9.544 46.8293 8.9C47.3053 8.256 47.5433 7.32267 47.5433 6.1C47.5433 4.87733 47.3053 3.944 46.8293 3.3C46.3627 2.656 45.7373 2.334 44.9533 2.334C44.16 2.334 43.5253 2.656 43.0493 3.3C42.5827 3.944 42.3493 4.87733 42.3493 6.1C42.3493 7.32267 42.5827 8.256 43.0493 8.9C43.5253 9.544 44.16 9.866 44.9533 9.866ZM61.747 3.58V9.992C61.747 11.2893 61.425 12.246 60.781 12.862C60.137 13.4873 59.1757 13.8 57.897 13.8C57.197 13.8 56.5297 13.702 55.895 13.506C55.2603 13.3193 54.747 13.0487 54.355 12.694L54.999 11.658C55.3443 11.9567 55.769 12.19 56.273 12.358C56.7863 12.5353 57.3137 12.624 57.855 12.624C58.723 12.624 59.3623 12.4187 59.773 12.008C60.193 11.5973 60.403 10.972 60.403 10.132V9.544C60.0857 9.92667 59.6937 10.216 59.227 10.412C58.7697 10.5987 58.2703 10.692 57.729 10.692C57.0197 10.692 56.3757 10.5427 55.797 10.244C55.2277 9.936 54.7797 9.51133 54.453 8.97C54.1263 8.41933 53.963 7.794 53.963 7.094C53.963 6.394 54.1263 5.77333 54.453 5.232C54.7797 4.68133 55.2277 4.25667 55.797 3.958C56.3757 3.65933 57.0197 3.51 57.729 3.51C58.289 3.51 58.807 3.61267 59.283 3.818C59.7683 4.02333 60.165 4.32667 60.473 4.728V3.58H61.747ZM57.883 9.516C58.3683 9.516 58.8023 9.41333 59.185 9.208C59.577 9.00267 59.8803 8.718 60.095 8.354C60.319 7.98067 60.431 7.56067 60.431 7.094C60.431 6.37533 60.193 5.79667 59.717 5.358C59.241 4.91 58.6297 4.686 57.883 4.686C57.127 4.686 56.511 4.91 56.035 5.358C55.559 5.79667 55.321 6.37533 55.321 7.094C55.321 7.56067 55.4283 7.98067 55.643 8.354C55.867 8.718 56.1703 9.00267 56.553 9.208C56.945 9.41333 57.3883 9.516 57.883 9.516ZM71.413 3.58V9.992C71.413 11.2893 71.091 12.246 70.447 12.862C69.803 13.4873 68.8417 13.8 67.563 13.8C66.863 13.8 66.1957 13.702 65.561 13.506C64.9263 13.3193 64.413 13.0487 64.021 12.694L64.665 11.658C65.0103 11.9567 65.435 12.19 65.939 12.358C66.4523 12.5353 66.9797 12.624 67.521 12.624C68.389 12.624 69.0283 12.4187 69.439 12.008C69.859 11.5973 70.069 10.972 70.069 10.132V9.544C69.7517 9.92667 69.3597 10.216 68.893 10.412C68.4357 10.5987 67.9363 10.692 67.395 10.692C66.6857 10.692 66.0417 10.5427 65.463 10.244C64.8937 9.936 64.4457 9.51133 64.119 8.97C63.7923 8.41933 63.629 7.794 63.629 7.094C63.629 6.394 63.7923 5.77333 64.119 5.232C64.4457 4.68133 64.8937 4.25667 65.463 3.958C66.0417 3.65933 66.6857 3.51 67.395 3.51C67.955 3.51 68.473 3.61267 68.949 3.818C69.4343 4.02333 69.831 4.32667 70.139 4.728V3.58H71.413ZM67.549 9.516C68.0343 9.516 68.4683 9.41333 68.851 9.208C69.243 9.00267 69.5463 8.718 69.761 8.354C69.985 7.98067 70.097 7.56067 70.097 7.094C70.097 6.37533 69.859 5.79667 69.383 5.358C68.907 4.91 68.2957 4.686 67.549 4.686C66.793 4.686 66.177 4.91 65.701 5.358C65.225 5.79667 64.987 6.37533 64.987 7.094C64.987 7.56067 65.0943 7.98067 65.309 8.354C65.533 8.718 65.8363 9.00267 66.219 9.208C66.611 9.41333 67.0543 9.516 67.549 9.516ZM77.915 3.51C78.6337 3.51 79.2777 3.66867 79.847 3.986C80.4164 4.30333 80.8597 4.74667 81.177 5.316C81.5037 5.88533 81.667 6.54333 81.667 7.29C81.667 8.03667 81.5037 8.69933 81.177 9.278C80.8597 9.84733 80.4164 10.2907 79.847 10.608C79.2777 10.9253 78.6337 11.084 77.915 11.084C77.383 11.084 76.893 10.9813 76.445 10.776C76.0064 10.5707 75.633 10.272 75.325 9.88V13.716H73.981V3.58H75.269V4.756C75.5677 4.34533 75.9457 4.03733 76.403 3.832C76.8604 3.61733 77.3644 3.51 77.915 3.51ZM77.803 9.908C78.279 9.908 78.7037 9.80067 79.077 9.586C79.4597 9.362 79.7584 9.054 79.973 8.662C80.197 8.26067 80.309 7.80333 80.309 7.29C80.309 6.77667 80.197 6.324 79.973 5.932C79.7584 5.53067 79.4597 5.22267 79.077 5.008C78.7037 4.79333 78.279 4.686 77.803 4.686C77.3364 4.686 76.9117 4.798 76.529 5.022C76.1557 5.23667 75.857 5.54 75.633 5.932C75.4184 6.324 75.311 6.77667 75.311 7.29C75.311 7.80333 75.4184 8.26067 75.633 8.662C75.8477 9.054 76.1464 9.362 76.529 9.586C76.9117 9.80067 77.3364 9.908 77.803 9.908ZM84.812 4.826C85.0453 4.39667 85.3907 4.07 85.848 3.846C86.3053 3.622 86.8607 3.51 87.514 3.51V4.812C87.4393 4.80267 87.3367 4.798 87.206 4.798C86.478 4.798 85.904 5.01733 85.484 5.456C85.0733 5.88533 84.868 6.50133 84.868 7.304V11H83.524V3.58H84.812V4.826ZM92.2801 11.084C91.5428 11.084 90.8801 10.9207 90.2921 10.594C89.7041 10.2673 89.2421 9.81933 88.9061 9.25C88.5795 8.67133 88.4161 8.018 88.4161 7.29C88.4161 6.562 88.5795 5.91333 88.9061 5.344C89.2421 4.76533 89.7041 4.31733 90.2921 4C90.8801 3.67333 91.5428 3.51 92.2801 3.51C93.0175 3.51 93.6755 3.67333 94.2541 4C94.8421 4.31733 95.2995 4.76533 95.6261 5.344C95.9621 5.91333 96.1301 6.562 96.1301 7.29C96.1301 8.018 95.9621 8.67133 95.6261 9.25C95.2995 9.81933 94.8421 10.2673 94.2541 10.594C93.6755 10.9207 93.0175 11.084 92.2801 11.084ZM92.2801 9.908C92.7561 9.908 93.1808 9.80067 93.5541 9.586C93.9368 9.362 94.2355 9.054 94.4501 8.662C94.6648 8.26067 94.7721 7.80333 94.7721 7.29C94.7721 6.77667 94.6648 6.324 94.4501 5.932C94.2355 5.53067 93.9368 5.22267 93.5541 5.008C93.1808 4.79333 92.7561 4.686 92.2801 4.686C91.8041 4.686 91.3748 4.79333 90.9921 5.008C90.6188 5.22267 90.3201 5.53067 90.0961 5.932C89.8815 6.324 89.7741 6.77667 89.7741 7.29C89.7741 7.80333 89.8815 8.26067 90.0961 8.662C90.3201 9.054 90.6188 9.362 90.9921 9.586C91.3748 9.80067 91.8041 9.908 92.2801 9.908ZM107.271 3.51C108.204 3.51 108.942 3.78067 109.483 4.322C110.034 4.86333 110.309 5.666 110.309 6.73V11H108.965V6.884C108.965 6.16533 108.797 5.624 108.461 5.26C108.134 4.896 107.663 4.714 107.047 4.714C106.366 4.714 105.824 4.92867 105.423 5.358C105.022 5.778 104.821 6.38467 104.821 7.178V11H103.477V6.884C103.477 6.16533 103.309 5.624 102.973 5.26C102.646 4.896 102.175 4.714 101.559 4.714C100.878 4.714 100.336 4.92867 99.9348 5.358C99.5335 5.778 99.3328 6.38467 99.3328 7.178V11H97.9888V3.58H99.2768V4.686C99.5475 4.30333 99.9022 4.014 100.341 3.818C100.78 3.61267 101.279 3.51 101.839 3.51C102.418 3.51 102.931 3.62667 103.379 3.86C103.827 4.09333 104.172 4.434 104.415 4.882C104.695 4.45267 105.082 4.11667 105.577 3.874C106.081 3.63133 106.646 3.51 107.271 3.51ZM115.484 3.51C116.51 3.51 117.294 3.762 117.836 4.266C118.386 4.77 118.662 5.52133 118.662 6.52V11H117.388V10.02C117.164 10.3653 116.842 10.6313 116.422 10.818C116.011 10.9953 115.521 11.084 114.952 11.084C114.121 11.084 113.454 10.8833 112.95 10.482C112.455 10.0807 112.208 9.55333 112.208 8.9C112.208 8.24667 112.446 7.724 112.922 7.332C113.398 6.93067 114.154 6.73 115.19 6.73H117.318V6.464C117.318 5.88533 117.15 5.442 116.814 5.134C116.478 4.826 115.983 4.672 115.33 4.672C114.891 4.672 114.462 4.74667 114.042 4.896C113.622 5.036 113.267 5.22733 112.978 5.47L112.418 4.462C112.8 4.154 113.258 3.92067 113.79 3.762C114.322 3.594 114.886 3.51 115.484 3.51ZM115.176 10.048C115.689 10.048 116.132 9.936 116.506 9.712C116.879 9.47867 117.15 9.152 117.318 8.732V7.696H115.246C114.107 7.696 113.538 8.07867 113.538 8.844C113.538 9.21733 113.682 9.51133 113.972 9.726C114.261 9.94067 114.662 10.048 115.176 10.048ZM122.437 4.826C122.67 4.39667 123.016 4.07 123.473 3.846C123.93 3.622 124.486 3.51 125.139 3.51V4.812C125.064 4.80267 124.962 4.798 124.831 4.798C124.103 4.798 123.529 5.01733 123.109 5.456C122.698 5.88533 122.493 6.50133 122.493 7.304V11H121.149V3.58H122.437V4.826ZM129.679 7.542L128.139 8.97V11H126.795V0.611999H128.139V7.276L132.185 3.58H133.809L130.687 6.646L134.117 11H132.465L129.679 7.542ZM141.814 7.332C141.814 7.43467 141.805 7.57 141.786 7.738H135.766C135.85 8.39133 136.135 8.91867 136.62 9.32C137.115 9.712 137.726 9.908 138.454 9.908C139.341 9.908 140.055 9.60933 140.596 9.012L141.338 9.88C141.002 10.272 140.582 10.5707 140.078 10.776C139.583 10.9813 139.028 11.084 138.412 11.084C137.628 11.084 136.933 10.9253 136.326 10.608C135.719 10.2813 135.248 9.82867 134.912 9.25C134.585 8.67133 134.422 8.018 134.422 7.29C134.422 6.57133 134.581 5.92267 134.898 5.344C135.225 4.76533 135.668 4.31733 136.228 4C136.797 3.67333 137.437 3.51 138.146 3.51C138.855 3.51 139.485 3.67333 140.036 4C140.596 4.31733 141.03 4.76533 141.338 5.344C141.655 5.92267 141.814 6.58533 141.814 7.332ZM138.146 4.644C137.502 4.644 136.961 4.84 136.522 5.232C136.093 5.624 135.841 6.13733 135.766 6.772H140.526C140.451 6.14667 140.195 5.638 139.756 5.246C139.327 4.84467 138.79 4.644 138.146 4.644ZM147.852 10.566C147.656 10.734 147.414 10.8647 147.124 10.958C146.835 11.042 146.536 11.084 146.228 11.084C145.482 11.084 144.903 10.8833 144.492 10.482C144.082 10.0807 143.876 9.50667 143.876 8.76V4.686H142.616V3.58H143.876V1.956H145.22V3.58H147.348V4.686H145.22V8.704C145.22 9.10533 145.318 9.41333 145.514 9.628C145.72 9.84267 146.009 9.95 146.382 9.95C146.793 9.95 147.143 9.83333 147.432 9.6L147.852 10.566ZM149.936 11.084C149.675 11.084 149.451 10.9953 149.264 10.818C149.077 10.6313 148.984 10.398 148.984 10.118C148.984 9.84733 149.077 9.62333 149.264 9.446C149.451 9.25933 149.675 9.166 149.936 9.166C150.197 9.166 150.417 9.25467 150.594 9.432C150.771 9.60933 150.86 9.838 150.86 10.118C150.86 10.398 150.767 10.6313 150.58 10.818C150.403 10.9953 150.188 11.084 149.936 11.084ZM154.074 4.826C154.307 4.39667 154.652 4.07 155.11 3.846C155.567 3.622 156.122 3.51 156.776 3.51V4.812C156.701 4.80267 156.598 4.798 156.468 4.798C155.74 4.798 155.166 5.01733 154.746 5.456C154.335 5.88533 154.13 6.50133 154.13 7.304V11H152.786V3.58H154.074V4.826ZM165.444 3.58V11H164.17V9.88C163.899 10.2627 163.54 10.5613 163.092 10.776C162.653 10.9813 162.173 11.084 161.65 11.084C160.661 11.084 159.881 10.8133 159.312 10.272C158.743 9.72133 158.458 8.914 158.458 7.85V3.58H159.802V7.696C159.802 8.41467 159.975 8.96067 160.32 9.334C160.665 9.698 161.16 9.88 161.804 9.88C162.513 9.88 163.073 9.66533 163.484 9.236C163.895 8.80667 164.1 8.2 164.1 7.416V3.58H165.444Z" fill="#99A3A9"/>
</svg>
