<svg width="77" height="14" viewBox="0 0 77 14" fill="none" xmlns="http://www.w3.org/2000/svg">
<path d="M10.116 10.624V13H0.594V11.11L5.454 6.52C5.97 6.028 6.318 5.608 6.498 5.26C6.678 4.9 6.768 4.546 6.768 4.198C6.768 3.694 6.594 3.31 6.246 3.046C5.91 2.77 5.412 2.632 4.752 2.632C4.2 2.632 3.702 2.74 3.258 2.956C2.814 3.16 2.442 3.472 2.142 3.892L0.018 2.524C0.51 1.792 1.188 1.222 2.052 0.813999C2.916 0.394 3.906 0.184 5.022 0.184C5.958 0.184 6.774 0.34 7.47 0.651999C8.178 0.952 8.724 1.384 9.108 1.948C9.504 2.5 9.702 3.154 9.702 3.91C9.702 4.594 9.558 5.236 9.27 5.836C8.982 6.436 8.424 7.12 7.596 7.888L4.698 10.624H10.116ZM19.9412 6.376C20.5652 6.688 21.0392 7.096 21.3632 7.6C21.6992 8.104 21.8672 8.686 21.8672 9.346C21.8672 10.126 21.6452 10.81 21.2012 11.398C20.7572 11.974 20.1332 12.424 19.3292 12.748C18.5252 13.06 17.5952 13.216 16.5392 13.216C15.4832 13.216 14.5532 13.06 13.7492 12.748C12.9572 12.424 12.3392 11.974 11.8952 11.398C11.4632 10.81 11.2472 10.126 11.2472 9.346C11.2472 8.686 11.4092 8.104 11.7332 7.6C12.0692 7.096 12.5432 6.688 13.1552 6.376C12.6872 6.088 12.3272 5.728 12.0752 5.296C11.8232 4.852 11.6972 4.348 11.6972 3.784C11.6972 3.052 11.9012 2.416 12.3092 1.876C12.7172 1.336 13.2872 0.921999 14.0192 0.633999C14.7512 0.334 15.5912 0.184 16.5392 0.184C17.4992 0.184 18.3452 0.334 19.0772 0.633999C19.8212 0.921999 20.3972 1.336 20.8052 1.876C21.2132 2.416 21.4172 3.052 21.4172 3.784C21.4172 4.348 21.2912 4.852 21.0392 5.296C20.7872 5.728 20.4212 6.088 19.9412 6.376ZM16.5392 2.326C15.9512 2.326 15.4772 2.47 15.1172 2.758C14.7692 3.034 14.5952 3.418 14.5952 3.91C14.5952 4.39 14.7692 4.768 15.1172 5.044C15.4652 5.32 15.9392 5.458 16.5392 5.458C17.1392 5.458 17.6192 5.32 17.9792 5.044C18.3392 4.768 18.5192 4.39 18.5192 3.91C18.5192 3.418 18.3392 3.034 17.9792 2.758C17.6192 2.47 17.1392 2.326 16.5392 2.326ZM16.5392 11.074C17.2712 11.074 17.8472 10.912 18.2672 10.588C18.6992 10.252 18.9152 9.808 18.9152 9.256C18.9152 8.704 18.6992 8.266 18.2672 7.942C17.8472 7.618 17.2712 7.456 16.5392 7.456C15.8192 7.456 15.2492 7.618 14.8292 7.942C14.4092 8.266 14.1992 8.704 14.1992 9.256C14.1992 9.82 14.4092 10.264 14.8292 10.588C15.2492 10.912 15.8192 11.074 16.5392 11.074ZM34.3657 5.098C35.1697 5.098 35.9017 5.26 36.5617 5.584C37.2217 5.908 37.7437 6.37 38.1277 6.97C38.5117 7.558 38.7037 8.242 38.7037 9.022C38.7037 9.862 38.4937 10.6 38.0737 11.236C37.6537 11.872 37.0777 12.364 36.3457 12.712C35.6257 13.048 34.8217 13.216 33.9337 13.216C32.1697 13.216 30.7897 12.676 29.7937 11.596C28.7977 10.516 28.2997 8.974 28.2997 6.97C28.2997 5.542 28.5697 4.318 29.1097 3.298C29.6497 2.278 30.3997 1.504 31.3597 0.975999C32.3317 0.448 33.4537 0.184 34.7257 0.184C35.3977 0.184 36.0397 0.261999 36.6517 0.417999C37.2757 0.561999 37.8037 0.771999 38.2357 1.048L37.1557 3.19C36.5317 2.77 35.7457 2.56 34.7977 2.56C33.7297 2.56 32.8837 2.872 32.2597 3.496C31.6357 4.12 31.2997 5.026 31.2517 6.214C31.9957 5.47 33.0337 5.098 34.3657 5.098ZM33.7717 11.038C34.3957 11.038 34.8997 10.87 35.2837 10.534C35.6797 10.198 35.8777 9.742 35.8777 9.166C35.8777 8.59 35.6797 8.134 35.2837 7.798C34.8997 7.45 34.3837 7.276 33.7357 7.276C33.0997 7.276 32.5777 7.456 32.1697 7.816C31.7617 8.164 31.5577 8.614 31.5577 9.166C31.5577 9.718 31.7557 10.168 32.1517 10.516C32.5477 10.864 33.0877 11.038 33.7717 11.038ZM45.1606 13.216C44.1166 13.216 43.1866 12.958 42.3706 12.442C41.5546 11.926 40.9126 11.182 40.4446 10.21C39.9886 9.226 39.7606 8.056 39.7606 6.7C39.7606 5.344 39.9886 4.18 40.4446 3.208C40.9126 2.224 41.5546 1.474 42.3706 0.957999C43.1866 0.442 44.1166 0.184 45.1606 0.184C46.2046 0.184 47.1346 0.442 47.9506 0.957999C48.7666 1.474 49.4026 2.224 49.8586 3.208C50.3266 4.18 50.5606 5.344 50.5606 6.7C50.5606 8.056 50.3266 9.226 49.8586 10.21C49.4026 11.182 48.7666 11.926 47.9506 12.442C47.1346 12.958 46.2046 13.216 45.1606 13.216ZM45.1606 10.75C45.9286 10.75 46.5286 10.42 46.9606 9.76C47.4046 9.1 47.6266 8.08 47.6266 6.7C47.6266 5.32 47.4046 4.3 46.9606 3.64C46.5286 2.98 45.9286 2.65 45.1606 2.65C44.4046 2.65 43.8046 2.98 43.3606 3.64C42.9286 4.3 42.7126 5.32 42.7126 6.7C42.7126 8.08 42.9286 9.1 43.3606 9.76C43.8046 10.42 44.4046 10.75 45.1606 10.75ZM56.7319 0.399999V13H53.8159V2.74H51.2959V0.399999H56.7319ZM68.5364 8.878V9.886H72.4244V11.38H68.5364V13H65.6024V11.38H63.8564V9.886H65.6024V0.399999H71.0564C72.7724 0.399999 74.1104 0.759999 75.0704 1.48C76.0424 2.2 76.5284 3.256 76.5284 4.648C76.5284 6.028 76.0424 7.078 75.0704 7.798C74.1104 8.518 72.7724 8.878 71.0564 8.878H68.5364ZM73.5764 4.666C73.5764 4.054 73.3544 3.586 72.9104 3.262C72.4784 2.938 71.8544 2.776 71.0384 2.776H68.5364V6.592H71.0384C71.8544 6.592 72.4784 6.43 72.9104 6.106C73.3544 5.77 73.5764 5.29 73.5764 4.666Z" fill="#EA1649"/>
<path d="M0 7.204H77.2844V8.104H0V7.204Z" fill="#EA1649"/>
</svg>
